<?xml version="1.0" encoding="UTF-8"?>
<svg width="785px" height="555px" viewBox="0 0 785 555" version="1.1" xmlns="http://www.w3.org/2000/svg" xmlns:xlink="http://www.w3.org/1999/xlink">
    <!-- Generator: Sketch 47.1 (45422) - http://www.bohemiancoding.com/sketch -->
    <title>pidgeonWindow</title>
    <desc>Created with Sketch.</desc>
    <defs>
        <linearGradient x1="58.9192271%" y1="115.129485%" x2="58.9192271%" y2="55.9968171%" id="linearGradient-1">
            <stop stop-color="#A9957B" offset="0%"></stop>
            <stop stop-color="#B68C79" offset="100%"></stop>
        </linearGradient>
        <linearGradient x1="50%" y1="0%" x2="100%" y2="52.4629667%" id="linearGradient-2">
            <stop stop-color="#A9957B" offset="0%"></stop>
            <stop stop-color="#B68C79" offset="100%"></stop>
        </linearGradient>
        <linearGradient x1="50%" y1="0%" x2="50%" y2="100%" id="linearGradient-3">
            <stop stop-color="#A9957B" offset="0%"></stop>
            <stop stop-color="#F1B686" offset="100%"></stop>
        </linearGradient>
        <linearGradient x1="62.215977%" y1="23.8621038%" x2="33.6881129%" y2="117.245448%" id="linearGradient-4">
            <stop stop-color="#B68C79" offset="0%"></stop>
            <stop stop-color="#A9957B" offset="100%"></stop>
        </linearGradient>
        <linearGradient x1="32.1215034%" y1="116.946224%" x2="32.1215034%" y2="30.2048213%" id="linearGradient-5">
            <stop stop-color="#A9957B" offset="0%"></stop>
            <stop stop-color="#B68C79" offset="100%"></stop>
        </linearGradient>
        <path d="M0.569623745,1.65148515 L64.3674832,1.65148515" id="path-6"></path>
        <filter x="-13.9%" y="-211.9%" width="127.7%" height="645.0%" filterUnits="objectBoundingBox" id="filter-7">
            <feMorphology radius="1" operator="dilate" in="SourceAlpha" result="shadowSpreadOuter1"></feMorphology>
            <feOffset dx="0" dy="2" in="shadowSpreadOuter1" result="shadowOffsetOuter1"></feOffset>
            <feMorphology radius="1.5" operator="erode" in="SourceAlpha" result="shadowInner"></feMorphology>
            <feOffset dx="0" dy="2" in="shadowInner" result="shadowInner"></feOffset>
            <feComposite in="shadowOffsetOuter1" in2="shadowInner" operator="out" result="shadowOffsetOuter1"></feComposite>
            <feGaussianBlur stdDeviation="2" in="shadowOffsetOuter1" result="shadowBlurOuter1"></feGaussianBlur>
            <feColorMatrix values="0 0 0 0 0   0 0 0 0 0   0 0 0 0 0  0 0 0 0.5 0" type="matrix" in="shadowBlurOuter1"></feColorMatrix>
        </filter>
        <path d="M0.569623745,14.8633663 L64.3674832,14.8633663" id="path-8"></path>
        <filter x="-13.9%" y="-211.9%" width="127.7%" height="645.0%" filterUnits="objectBoundingBox" id="filter-9">
            <feMorphology radius="1" operator="dilate" in="SourceAlpha" result="shadowSpreadOuter1"></feMorphology>
            <feOffset dx="0" dy="2" in="shadowSpreadOuter1" result="shadowOffsetOuter1"></feOffset>
            <feMorphology radius="1.5" operator="erode" in="SourceAlpha" result="shadowInner"></feMorphology>
            <feOffset dx="0" dy="2" in="shadowInner" result="shadowInner"></feOffset>
            <feComposite in="shadowOffsetOuter1" in2="shadowInner" operator="out" result="shadowOffsetOuter1"></feComposite>
            <feGaussianBlur stdDeviation="2" in="shadowOffsetOuter1" result="shadowBlurOuter1"></feGaussianBlur>
            <feColorMatrix values="0 0 0 0 0   0 0 0 0 0   0 0 0 0 0  0 0 0 0.5 0" type="matrix" in="shadowBlurOuter1"></feColorMatrix>
        </filter>
        <path d="M0.569623745,29.1762376 L64.3674832,29.1762376" id="path-10"></path>
        <filter x="-13.9%" y="-211.9%" width="127.7%" height="645.0%" filterUnits="objectBoundingBox" id="filter-11">
            <feMorphology radius="1" operator="dilate" in="SourceAlpha" result="shadowSpreadOuter1"></feMorphology>
            <feOffset dx="0" dy="2" in="shadowSpreadOuter1" result="shadowOffsetOuter1"></feOffset>
            <feMorphology radius="1.5" operator="erode" in="SourceAlpha" result="shadowInner"></feMorphology>
            <feOffset dx="0" dy="2" in="shadowInner" result="shadowInner"></feOffset>
            <feComposite in="shadowOffsetOuter1" in2="shadowInner" operator="out" result="shadowOffsetOuter1"></feComposite>
            <feGaussianBlur stdDeviation="2" in="shadowOffsetOuter1" result="shadowBlurOuter1"></feGaussianBlur>
            <feColorMatrix values="0 0 0 0 0   0 0 0 0 0   0 0 0 0 0  0 0 0 0.5 0" type="matrix" in="shadowBlurOuter1"></feColorMatrix>
        </filter>
        <path d="M0.569623745,44.590099 L64.3674832,44.590099" id="path-12"></path>
        <filter x="-13.9%" y="-211.9%" width="127.7%" height="645.0%" filterUnits="objectBoundingBox" id="filter-13">
            <feMorphology radius="1" operator="dilate" in="SourceAlpha" result="shadowSpreadOuter1"></feMorphology>
            <feOffset dx="0" dy="2" in="shadowSpreadOuter1" result="shadowOffsetOuter1"></feOffset>
            <feMorphology radius="1.5" operator="erode" in="SourceAlpha" result="shadowInner"></feMorphology>
            <feOffset dx="0" dy="2" in="shadowInner" result="shadowInner"></feOffset>
            <feComposite in="shadowOffsetOuter1" in2="shadowInner" operator="out" result="shadowOffsetOuter1"></feComposite>
            <feGaussianBlur stdDeviation="2" in="shadowOffsetOuter1" result="shadowBlurOuter1"></feGaussianBlur>
            <feColorMatrix values="0 0 0 0 0   0 0 0 0 0   0 0 0 0 0  0 0 0 0.5 0" type="matrix" in="shadowBlurOuter1"></feColorMatrix>
        </filter>
        <path d="M0.569623745,1.65148515 L64.3674832,1.65148515" id="path-14"></path>
        <filter x="-13.9%" y="-211.9%" width="127.7%" height="645.0%" filterUnits="objectBoundingBox" id="filter-15">
            <feMorphology radius="1" operator="dilate" in="SourceAlpha" result="shadowSpreadOuter1"></feMorphology>
            <feOffset dx="0" dy="2" in="shadowSpreadOuter1" result="shadowOffsetOuter1"></feOffset>
            <feMorphology radius="1.5" operator="erode" in="SourceAlpha" result="shadowInner"></feMorphology>
            <feOffset dx="0" dy="2" in="shadowInner" result="shadowInner"></feOffset>
            <feComposite in="shadowOffsetOuter1" in2="shadowInner" operator="out" result="shadowOffsetOuter1"></feComposite>
            <feGaussianBlur stdDeviation="2" in="shadowOffsetOuter1" result="shadowBlurOuter1"></feGaussianBlur>
            <feColorMatrix values="0 0 0 0 0   0 0 0 0 0   0 0 0 0 0  0 0 0 0.5 0" type="matrix" in="shadowBlurOuter1"></feColorMatrix>
        </filter>
        <path d="M0.569623745,14.8633663 L64.3674832,14.8633663" id="path-16"></path>
        <filter x="-13.9%" y="-211.9%" width="127.7%" height="645.0%" filterUnits="objectBoundingBox" id="filter-17">
            <feMorphology radius="1" operator="dilate" in="SourceAlpha" result="shadowSpreadOuter1"></feMorphology>
            <feOffset dx="0" dy="2" in="shadowSpreadOuter1" result="shadowOffsetOuter1"></feOffset>
            <feMorphology radius="1.5" operator="erode" in="SourceAlpha" result="shadowInner"></feMorphology>
            <feOffset dx="0" dy="2" in="shadowInner" result="shadowInner"></feOffset>
            <feComposite in="shadowOffsetOuter1" in2="shadowInner" operator="out" result="shadowOffsetOuter1"></feComposite>
            <feGaussianBlur stdDeviation="2" in="shadowOffsetOuter1" result="shadowBlurOuter1"></feGaussianBlur>
            <feColorMatrix values="0 0 0 0 0   0 0 0 0 0   0 0 0 0 0  0 0 0 0.5 0" type="matrix" in="shadowBlurOuter1"></feColorMatrix>
        </filter>
        <path d="M0.569623745,29.1762376 L64.3674832,29.1762376" id="path-18"></path>
        <filter x="-13.9%" y="-211.9%" width="127.7%" height="645.0%" filterUnits="objectBoundingBox" id="filter-19">
            <feMorphology radius="1" operator="dilate" in="SourceAlpha" result="shadowSpreadOuter1"></feMorphology>
            <feOffset dx="0" dy="2" in="shadowSpreadOuter1" result="shadowOffsetOuter1"></feOffset>
            <feMorphology radius="1.5" operator="erode" in="SourceAlpha" result="shadowInner"></feMorphology>
            <feOffset dx="0" dy="2" in="shadowInner" result="shadowInner"></feOffset>
            <feComposite in="shadowOffsetOuter1" in2="shadowInner" operator="out" result="shadowOffsetOuter1"></feComposite>
            <feGaussianBlur stdDeviation="2" in="shadowOffsetOuter1" result="shadowBlurOuter1"></feGaussianBlur>
            <feColorMatrix values="0 0 0 0 0   0 0 0 0 0   0 0 0 0 0  0 0 0 0.5 0" type="matrix" in="shadowBlurOuter1"></feColorMatrix>
        </filter>
        <path d="M0.569623745,44.590099 L64.3674832,44.590099" id="path-20"></path>
        <filter x="-13.9%" y="-211.9%" width="127.7%" height="645.0%" filterUnits="objectBoundingBox" id="filter-21">
            <feMorphology radius="1" operator="dilate" in="SourceAlpha" result="shadowSpreadOuter1"></feMorphology>
            <feOffset dx="0" dy="2" in="shadowSpreadOuter1" result="shadowOffsetOuter1"></feOffset>
            <feMorphology radius="1.5" operator="erode" in="SourceAlpha" result="shadowInner"></feMorphology>
            <feOffset dx="0" dy="2" in="shadowInner" result="shadowInner"></feOffset>
            <feComposite in="shadowOffsetOuter1" in2="shadowInner" operator="out" result="shadowOffsetOuter1"></feComposite>
            <feGaussianBlur stdDeviation="2" in="shadowOffsetOuter1" result="shadowBlurOuter1"></feGaussianBlur>
            <feColorMatrix values="0 0 0 0 0   0 0 0 0 0   0 0 0 0 0  0 0 0 0.5 0" type="matrix" in="shadowBlurOuter1"></feColorMatrix>
        </filter>
        <path d="M0.569623745,1.65148515 L64.3674832,1.65148515" id="path-22"></path>
        <filter x="-13.9%" y="-211.9%" width="127.7%" height="645.0%" filterUnits="objectBoundingBox" id="filter-23">
            <feMorphology radius="1" operator="dilate" in="SourceAlpha" result="shadowSpreadOuter1"></feMorphology>
            <feOffset dx="0" dy="2" in="shadowSpreadOuter1" result="shadowOffsetOuter1"></feOffset>
            <feMorphology radius="1.5" operator="erode" in="SourceAlpha" result="shadowInner"></feMorphology>
            <feOffset dx="0" dy="2" in="shadowInner" result="shadowInner"></feOffset>
            <feComposite in="shadowOffsetOuter1" in2="shadowInner" operator="out" result="shadowOffsetOuter1"></feComposite>
            <feGaussianBlur stdDeviation="2" in="shadowOffsetOuter1" result="shadowBlurOuter1"></feGaussianBlur>
            <feColorMatrix values="0 0 0 0 0   0 0 0 0 0   0 0 0 0 0  0 0 0 0.5 0" type="matrix" in="shadowBlurOuter1"></feColorMatrix>
        </filter>
        <path d="M0.569623745,15.9643564 L64.3674832,15.9643564" id="path-24"></path>
        <filter x="-13.9%" y="-211.9%" width="127.7%" height="645.0%" filterUnits="objectBoundingBox" id="filter-25">
            <feMorphology radius="1" operator="dilate" in="SourceAlpha" result="shadowSpreadOuter1"></feMorphology>
            <feOffset dx="0" dy="2" in="shadowSpreadOuter1" result="shadowOffsetOuter1"></feOffset>
            <feMorphology radius="1.5" operator="erode" in="SourceAlpha" result="shadowInner"></feMorphology>
            <feOffset dx="0" dy="2" in="shadowInner" result="shadowInner"></feOffset>
            <feComposite in="shadowOffsetOuter1" in2="shadowInner" operator="out" result="shadowOffsetOuter1"></feComposite>
            <feGaussianBlur stdDeviation="2" in="shadowOffsetOuter1" result="shadowBlurOuter1"></feGaussianBlur>
            <feColorMatrix values="0 0 0 0 0   0 0 0 0 0   0 0 0 0 0  0 0 0 0.5 0" type="matrix" in="shadowBlurOuter1"></feColorMatrix>
        </filter>
        <path d="M0.569623745,31.3782178 L64.3674832,31.3782178" id="path-26"></path>
        <filter x="-13.9%" y="-211.9%" width="127.7%" height="645.0%" filterUnits="objectBoundingBox" id="filter-27">
            <feMorphology radius="1" operator="dilate" in="SourceAlpha" result="shadowSpreadOuter1"></feMorphology>
            <feOffset dx="0" dy="2" in="shadowSpreadOuter1" result="shadowOffsetOuter1"></feOffset>
            <feMorphology radius="1.5" operator="erode" in="SourceAlpha" result="shadowInner"></feMorphology>
            <feOffset dx="0" dy="2" in="shadowInner" result="shadowInner"></feOffset>
            <feComposite in="shadowOffsetOuter1" in2="shadowInner" operator="out" result="shadowOffsetOuter1"></feComposite>
            <feGaussianBlur stdDeviation="2" in="shadowOffsetOuter1" result="shadowBlurOuter1"></feGaussianBlur>
            <feColorMatrix values="0 0 0 0 0   0 0 0 0 0   0 0 0 0 0  0 0 0 0.5 0" type="matrix" in="shadowBlurOuter1"></feColorMatrix>

    </defs>
    <g id="Page-1" stroke="none" stroke-width="1" fill="none" fill-rule="evenodd">
        <g id="pidgeonWindow">
            <g id="Group-6">
                <path d="M303.611316,538.498057 L356.706988,538.498057 L356.706988,554.952769 L398.375037,554.952769 L398.375037,538.498057 C411.404162,537.071525 418.084248,536.13824 418.415297,535.698199 C422.110573,525.557267 430.903423,520.840033 444.793847,521.546498 L444.793847,495.499304 L297.088155,511.801602 L296.318303,520.80839 L288.121898,511.801602 L141.617188,496.926758 L141.617187,521.167969 C154.706958,520.713857 163.09948,525.557267 166.794756,535.698199 C167.125805,536.13824 173.805891,537.071525 186.835016,538.498057 L186.835016,554.952769 L228.503065,554.952769 L228.503065,538.498057 L303.611316,538.498057 Z" id="Combined-Shape" fill="url(#linearGradient-1)"></path>
                <rect id="Rectangle-12" fill="#6A1D00" opacity="0.119168931" x="130" y="319" width="77.7169811" height="30.9707225"></rect>
                <rect id="Rectangle-3" fill="url(#linearGradient-2)" x="170.72327" y="92.4831683" width="6.60377358" height="423.881188"></rect>
                <rect id="Rectangle-3" fill="url(#linearGradient-3)" x="405.157233" y="92.4831683" width="6.60377358" height="423.881188"></rect>
                <polygon id="Path-21" fill="url(#linearGradient-4)" points="442.090642 41.4591584 442.090642 56.6857135 427.829759 76.7722385 427.829759 92.4831683 406.13963 92.4831683 406.13963 41.4591584"></polygon>
                <polygon id="Path-21" fill="url(#linearGradient-5)" transform="translate(158.863564, 66.971163) scale(-1, 1) translate(-158.863564, -66.971163) " points="176.83907 41.4591584 176.83907 56.6857135 162.578186 76.7722385 162.578186 92.4831683 140.888058 92.4831683 140.888058 41.4591584"></polygon>
                <rect id="Rectangle-2" fill="#344244" x="175.125786" y="64.9584158" width="233.333333" height="451.405941"></rect>
                <rect id="Rectangle-2" fill="#344244" x="497.610063" y="135.421782" width="90.2515723" height="173.956436"></rect>
                <rect id="Rectangle-2" fill="#101415" x="509.716981" y="146.431683" width="66.0377358" height="149.734653"></rect>
                <rect id="Rectangle-2" fill="#344244" x="509.716981" y="166.249505" width="64.9371069" height="129.916832"></rect>
                <g id="Group-5" transform="translate(509.716981, 157.441584)" stroke-linecap="square">
                    <g id="Group-4" stroke="#6A7F6D">
                        <path d="M0.569623745,1.65148515 L64.3674832,1.65148515" id="Line"></path>
                        <path d="M0.569623745,14.8633663 L64.3674832,14.8633663" id="Line"></path>
                        <path d="M0.569623745,29.1762376 L64.3674832,29.1762376" id="Line"></path>
                        <path d="M0.569623745,44.590099 L64.3674832,44.590099" id="Line"></path>
                    </g>
                    <g id="Group-4" opacity="0.497169384" transform="translate(0.000000, 58.352475)" stroke="#8FC798">
                        <path d="M0.569623745,1.65148515 L64.3674832,1.65148515" id="Line"></path>
                        <path d="M0.569623745,14.8633663 L64.3674832,14.8633663" id="Line"></path>
                        <path d="M0.569623745,29.1762376 L64.3674832,29.1762376" id="Line"></path>
                        <path d="M0.569623745,44.590099 L64.3674832,44.590099" id="Line"></path>
                    </g>
                    <g id="Group-4" opacity="0.423856431" transform="translate(0.000000, 101.291089)" stroke="#8FC798">
                        <path d="M0.569623745,1.65148515 L64.3674832,1.65148515" id="Line"></path>
                        <path d="M0.569623745,15.9643564 L64.3674832,15.9643564" id="Line"></path>
                        <path d="M0.569623745,31.3782178 L64.3674832,31.3782178" id="Line"></path>
                    </g>
                </g>
                <g id="Group-5" transform="translate(509.716981, 158.542574)" stroke-linecap="square">
                    <g id="Group-4">
                        <g id="Line">
                            <use fill="black" fill-opacity="1" filter="url(#filter-7)" xlink:href="#path-6"></use>
                            <use stroke="#000000" stroke-width="1" xlink:href="#path-6"></use>
                        </g>
                        <g id="Line">
                            <use fill="black" fill-opacity="1" filter="url(#filter-9)" xlink:href="#path-8"></use>
                            <use stroke="#000000" stroke-width="1" xlink:href="#path-8"></use>
                        </g>
                        <g id="Line">
                            <use fill="black" fill-opacity="1" filter="url(#filter-11)" xlink:href="#path-10"></use>
                            <use stroke="#000000" stroke-width="1" xlink:href="#path-10"></use>
                        </g>
                        <g id="Line">
                            <use fill="black" fill-opacity="1" filter="url(#filter-13)" xlink:href="#path-12"></use>
                            <use stroke="#000000" stroke-width="1" xlink:href="#path-12"></use>
                        </g>
                    </g>
                    <g id="Group-4" opacity="0.497169384" transform="translate(0.000000, 58.352475)">
                        <g id="Line">
                            <use fill="black" fill-opacity="1" filter="url(#filter-15)" xlink:href="#path-14"></use>
                            <use stroke="#000000" stroke-width="1" xlink:href="#path-14"></use>
                        </g>
                        <g id="Line">
                            <use fill="black" fill-opacity="1" filter="url(#filter-17)" xlink:href="#path-16"></use>
                            <use stroke="#000000" stroke-width="1" xlink:href="#path-16"></use>
                        </g>
                        <g id="Line">
                            <use fill="black" fill-opacity="1" filter="url(#filter-19)" xlink:href="#path-18"></use>
                            <use stroke="#000000" stroke-width="1" xlink:href="#path-18"></use>
                        </g>
                        <g id="Line">
                            <use fill="black" fill-opacity="1" filter="url(#filter-21)" xlink:href="#path-20"></use>
                            <use stroke="#000000" stroke-width="1" xlink:href="#path-20"></use>
                        </g>
                    </g>
                    <g id="Group-4" opacity="0.423856431" transform="translate(0.000000, 101.291089)">
                        <g id="Line">
                            <use fill="black" fill-opacity="1" filter="url(#filter-23)" xlink:href="#path-22"></use>
                            <use stroke="#000000" stroke-width="1" xlink:href="#path-22"></use>
                        </g>
                        <g id="Line">
                            <use fill="black" fill-opacity="1" filter="url(#filter-25)" xlink:href="#path-24"></use>
                            <use stroke="#000000" stroke-width="1" xlink:href="#path-24"></use>
                        </g>
                        <g id="Line">
                            <use fill="black" fill-opacity="1" filter="url(#filter-27)" xlink:href="#path-26"></use>
                            <use stroke="#000000" stroke-width="1" xlink:href="#path-26"></use>
                        </g>
                    </g>
                </g>
                <polygon id="Path-26" fill="#344244" points="163.800271 490.168533 163.800271 495.265989 141.395379 497.124985 141.395379 508.5112 154.219211 510.585234 425.802624 510.585234 444.474622 508.5112 444.474622 495.265989 422.917772 495.265989 422.917772 490.168533"></polygon>
                <rect id="Rectangle-6" fill-opacity="0.226845562" fill="url(#pattern-28)" x="175.125786" y="36.3326733" width="233.333333" height="99.0891089"></rect>
                <rect id="Rectangle-10" fill="#8BAEA0" x="509.716981" y="260.934653" width="64.9371069" height="15.4138614"></rect>
                <rect id="Rectangle-10" fill="#7A7A7A" x="509.716981" y="231.207921" width="64.9371069" height="14.3128713"></rect>
                <rect id="Rectangle-6" fill-opacity="0.136107329" fill="#000000" x="175.125786" y="36.3326733" width="233.333333" height="91.3821782"></rect>
                <g id="Group" transform="translate(271.981132, 20.918812)"></g>
                <path d="M293.19081,0.500812391 L293.19081,0 C282.673212,0.279548267 276.471068,3.96600144 274.584377,11.0593595 C271.754342,21.6993967 278.132401,1.48698175 256.39498,11.0593595 C241.903365,17.4409447 232.952515,16.7854399 229.542428,9.09284499 C227.77397,12.9964857 227.331855,15.5152872 228.216084,16.6492497 C229.542428,18.3501934 202.57272,19.2780786 170.555597,28.9547494 C170.555597,28.9547494 136.603774,28.4666151 136.603774,28.9547494 C136.603774,31.0698104 137.599785,33.9100925 139.591809,37.4755956 L143.842773,37.4755956 L143.842773,40.3474165 L141.121296,40.3474165 L141.121296,46.2254564 L151.245148,46.2254564 L162.494349,60.7168085 L162.494349,85.299853 L174.734547,85.299853 C216.128667,73.8930952 252.459095,68.1429701 283.725831,68.0494776 C285.320975,68.1445061 287.013837,68.2155007 288.804417,68.2624613 C322.120656,69.1362289 362.119718,74.9261035 408.801604,85.6320854 L421.041818,85.6320854 L421.041818,61.0490408 L432.291035,46.5576887 L442.4149,46.5576887 L442.4149,40.6796488 L439.693419,40.6796488 L439.693419,37.807828 L443.944389,37.807828 C445.936416,34.2423249 446.932429,31.4020428 446.932429,29.2869817 C446.932429,28.7988475 412.98056,29.2869817 412.98056,29.2869817 C380.963393,19.610311 353.993649,18.6824257 355.319994,16.9814821 C356.204225,15.8475196 355.762109,13.328718 353.993649,9.42507735 C350.583557,17.1176722 341.632695,17.7731771 327.141061,11.3915919 C305.40361,1.81921411 311.781678,22.031629 308.951639,11.3915919 C307.24191,4.96356197 301.988301,1.33330214 293.19081,0.500812391 Z" id="Combined-Shape" fill="#4D606E"></path>
                <rect id="Rectangle-7" fill="#4D606E" x="163.018868" y="489.940594" width="259.748428" height="5.5049505"></rect>
                <rect id="Rectangle-7" fill="#4D606E" x="141.006289" y="496.546535" width="303.773585" height="5.5049505"></rect>
                <rect id="Rectangle-7" fill="#4D606E" x="141.006289" y="503.152475" width="303.773585" height="5.5049505"></rect>
                <path d="M344.643063,37.599242 L339.337688,36.0305461 L371.046335,36.0305461 C397.83762,28.7207173 418.955221,24.23343 434.399138,22.5686843 C440.505264,20.9908493 444.375737,24.6486309 446.134164,26.2404432 C439.153124,26.7769609 414.169707,28.4590888 373.392695,40.4560102 C373.049589,40.5569547 363.466378,40.5569547 344.643063,40.4560102 L344.643063,37.599242 Z" id="Path-5" fill="#263133" transform="translate(392.735926, 31.356874) scale(-1, 1) translate(-392.735926, -31.356874) "></path>
                <path d="M144.673619,37.599242 L139.368244,36.0305461 L171.07689,36.0305461 C195.380296,28.7665919 215.569958,24.6644003 231.645876,23.7239712 C231.645876,23.994918 235.914038,26.5807395 235.914038,27.7612933 C228.932998,28.297811 214.200263,28.4590888 173.423251,40.4560102 C173.080145,40.5569547 163.496934,40.5569547 144.673619,40.4560102 L144.673619,37.599242 Z" id="Path-5" fill="#263133"></path>
                <path d="M140.742955,40.9785504 L171.20802,40.9785504 C205.841287,30.9506523 241.401777,25.5223984 277.889489,24.6937887" id="Path-8" stroke="#C6A684"></path>
                <path d="M243.208736,28.7325784 C246.965207,30.9163659 250.559116,31.6574414 253.990461,30.9558049 C264.82167,28.7410553 254.480433,24.6378377 263.316635,25.2674769 C263.948229,25.3124822 259.332152,19.1070293 253.990461,21.4458974 C246.365576,24.7844662 240.255548,25.1784865 235.660377,22.6279582 C236.961065,23.9598527 238.244288,25.1367502 239.510046,26.1586509 L244.478306,25.9988588 L245.566038,28.5853878 L243.208736,28.7325784 Z" id="Combined-Shape" fill-opacity="0.579999983" fill="#263133" style="mix-blend-mode: multiply;" transform="translate(249.517525, 26.065269) rotate(-2.000000) translate(-249.517525, -26.065269) "></path>
                <path d="M283.558158,11.2109607 C286.753994,7.4664475 290.533465,5.90205239 294.89657,6.51777537 C301.441228,7.44135984 306.184466,12.660311 304.582965,18.1018255 C303.515297,21.7295019 301.936726,23.54334 299.847251,23.54334 C300.829648,18.3860329 299.640525,14.6554971 296.27988,12.3517327 C292.919236,10.0479682 288.678662,9.66771091 283.558158,11.2109607 Z" id="Path-4" fill="#263133"></path>
                <path d="M309.166052,40.6447679 L339.631117,40.6447679 C371.993621,31.0615965 406.226333,25.7062552 442.329255,24.5787438" id="Path-8" stroke="#C6A684" transform="translate(375.747654, 32.611756) scale(-1, 1) translate(-375.747654, -32.611756) "></path>
                <path d="" id="Path-7" stroke="#979797"></path>
                <path d="M321.524499,28.1122194 C325.28097,30.2960069 328.874878,31.0370824 332.306224,30.3354459 C343.137432,28.1206964 332.796196,24.0174787 341.632398,24.6471179 C342.263991,24.6921232 337.647914,18.4866704 332.306224,20.8255384 C324.681338,24.1641072 318.57131,24.5581275 313.97614,22.0075992 C315.276828,23.3394937 316.560051,24.5163912 317.825809,25.5382919 L322.794069,25.3784998 L323.8818,27.9650288 L321.524499,28.1122194 Z" id="Combined-Shape" fill-opacity="0.579999983" fill="#263133" style="mix-blend-mode: multiply;" transform="translate(327.833288, 25.444910) scale(-1, 1) rotate(-2.000000) translate(-327.833288, -25.444910) "></path>
                <path d="" id="Path-6" stroke="#979797"></path>
                <path d="M275.303441,19.309259 C276.976056,25.386925 282.265098,28.9658596 291.170567,30.0460628 C300.076036,31.126266 306.196282,28.4816677 309.531305,22.1122679 L308.273941,30.0460628 C303.584087,35.4771839 297.32211,37.7221715 289.488011,36.7810257 C281.653912,35.8398798 276.094518,31.6875129 272.809828,24.3239248 L275.303441,19.309259 Z" id="Path-10" fill="#26323A"></path>
                <path d="" id="Path-11" stroke="#979797"></path>
                <path d="M283.391196,28.622009 C280.657305,28.6656523 277.950588,28.7355517 275.27657,28.831103 C243.462231,29.9679327 209.359574,35.7821782 172.968596,46.2738397 L152.005055,46.2738397 L155.872304,52.1723082 L164.84071,52.1723082 C189.098973,42.011087 220.201413,35.5191161 258.148032,32.6963954 C293.439983,30.0711465 344.317559,36.5631174 410.780759,52.1723082 L427.697554,52.1723082 L432.447241,46.2738397 C417.898302,46.2738397 410.676142,45.8964496 410.780759,45.1416692 C395.501922,40.2989328 366.786978,34.2972738 336.514102,31.0309329 C325.068437,29.7959844 313.5046,29.0428067 302.177479,28.7325892 C299.53204,30.0547894 296.335608,30.8277228 292.893082,30.8277228 C289.355668,30.8277228 286.078101,30.0115929 283.391196,28.622009 Z" id="Combined-Shape" fill="#263133"></path>
                <path d="M228.567286,16.9430442 C229.792416,19.4654297 232.257861,21.6068496 235.963621,23.3673038 C237.630755,24.1592908 238.919343,25.2540006 239.829386,26.6514329 L225.775139,27.8215037 L221.694536,18.1770885 L228.567286,16.9430442 Z" id="Path-13" fill="#26333B"></path>
                <path d="M310.149525,14.6542427 C310.340845,11.6318959 311.555944,9.84422055 313.794821,9.29121674 C316.033698,8.73821292 317.479885,11.835106 318.133384,18.5818959 C314.07374,21.9472269 312.043918,23.6298925 312.043918,23.6298925 C312.043918,23.6298925 311.181364,23.6298925 309.456257,23.6298925 L310.149525,14.6542427 Z" id="Path-14" fill="#26323A"></path>
                <path d="M333.616352,13.9849397 C337.289415,17.4570725 337.289415,19.0924299 333.616352,18.8910118 C328.106759,18.5888846 330.792229,24.6561572 338.757278,22.1563506 C346.722328,19.6565439 353.869429,15.174095 353.933382,9.34013769 C354.302587,9.34820158 351.329062,15.7105824 344.483988,15.8121028 C339.920606,15.8797831 336.29806,15.2707287 333.616352,13.9849397 Z" id="Path-15" fill="#263133"></path>
                <path d="" id="Path-16" stroke="#979797"></path>
                <path d="M259.910758,9.69226098 C255.11557,13.8621893 251.489442,17.5059935 249.032374,20.6236734 C245.346772,25.3001934 236.060215,22.1332341 235.510976,20.6236734 C234.961736,19.1141128 239.152245,21.2999013 244.030101,15.3482751 C245.727979,15.3493497 251.021531,13.4640116 259.910758,9.69226098 Z" id="Path-17" fill="#26323A"></path>
                <path d="M162.986623,60.6393951 L176.357545,60.6393951 C254.934282,34.1353522 332.43117,34.1353522 408.848209,60.6393951 C408.987221,60.6393951 413.342802,60.6393951 421.914953,60.6393951" id="Path-19" stroke="#263133"></path>
                <path d="M408.733202,60.9393719 L411.140828,45.95666 L404.959463,44.1234684 L402.436831,58.1363629 L394.215433,55.6774134 L396.948734,41.4795869 L391.17903,40.3205368 L388.045892,53.9603419 L378.921635,51.9239403 L382.551346,38.2389774 L376.619343,38.2389774 L373.74524,49.5891747 L364.96063,48.1672416 L368.054,35.8714186 L362.508936,35.8714186 L359.108165,48.1672416 L351.769206,45.95666 L354.090845,33.2576423 L348.499564,33.2576423 L345.657706,44.1234684 L338.366039,44.1234684 L340.32331,33.2576423 L335.216778,31.3051052 L333.394937,44.1234684 L325.648616,41.4795869 L326.999681,31.3051052 L321.85553,31.3051052 L320.234682,41.4795869 L313.33103,41.4795869 L315.056137,29.9686494 L309.160678,29.9686494 L307.747273,40.3205368 L300.694219,40.3205368 L300.694219,33.2576423 L292.981218,31.3051052 L292.981218,40.3205368 L285.089795,40.3205368 L283.273327,29.9686494 L276.72652,29.9686494 L278.605327,40.3205368 L271.628587,41.4795869 L269.68099,29.9686494 L262.043227,29.9686494 L264.056389,41.4795869 L255.824243,44.1234684 L253.679952,31.3051052 L245.748759,33.2576423 L247.298668,44.1234684 L241.657945,45.4540107 L240.496051,33.2576423 L234.137339,33.2576423 L236.008623,45.95666 L230.07877,45.95666 L226.811278,35.8714186 L221.668202,35.8714186 L224.51221,48.1672416 L218.777976,48.1672416 L215.434171,38.2389774 L210.340538,38.2389774 L213.589758,49.5891747 L208.540193,51.9239403 L203.570165,38.2389774 L198.602287,41.4795869 L201.943943,53.9603419 L197.342583,53.9603419 L191.872758,41.4795869 L188.233374,44.1234684 L191.872758,55.6774134 L184.84765,58.1363629 L181.622076,45.4540107 L175.799706,45.95666 L180.092589,60.9393719 L175.799706,60.9393719 L173.00729,45.95666 L170.468535,48.1672416 L173.00729,60.9393719 L178.401877,60.9393719 C218.351268,47.2157024 255.818869,40.7291074 290.804681,41.4795869 C325.790494,42.2300665 364.390969,48.7166615 406.606108,60.9393719 L408.733202,60.9393719 Z" id="Path-18" fill="#D8D8D8" style="mix-blend-mode: multiply;"></path>
                <path d="M163.082283,72.4148283 L163.082283,85.8998066 L175.862047,85.8998066 C250.032685,64.2792569 327.2494,64.2792569 407.512192,85.8998066 C407.512192,85.8998066 412.151529,85.8998066 421.430203,85.8998066 L421.430203,73.6050588 L408.723528,73.6050588 C372.270211,60.918585 334.29708,54.6093956 294.804135,54.6774907 C255.31119,54.7455858 215.663827,60.6580317 175.862047,72.4148283 L163.082283,72.4148283 Z" id="Path-20" fill-opacity="0.219999999" fill="url(#pattern-30)" style="mix-blend-mode: hard-light;"></path>
                <path d="M163.082283,72.4148283 L163.082283,85.8998066 L175.862047,85.8998066 C250.032685,64.2792569 327.2494,64.2792569 407.512192,85.8998066 C407.512192,85.8998066 412.151529,85.8998066 421.430203,85.8998066 L421.430203,73.6050588 L408.723528,73.6050588 C372.270211,60.918585 334.29708,54.6093956 294.804135,54.6774907 C255.31119,54.7455858 215.663827,60.6580317 175.862047,72.4148283 L163.082283,72.4148283 Z" id="Path-20" fill-opacity="0.360000014" fill="url(#linearGradient-32)" style="mix-blend-mode: overlay;"></path>
                <g id="Group-3" transform="translate(188.333333, 81.473267)">
                    <mask id="mask-34" fill="white">
                        <use xlink:href="#path-33"></use>
                    </mask>
                    <use id="Path-22" stroke="#38494C" xlink:href="#path-33"></use>
                    <rect id="Rectangle-5" fill="#050626" style="mix-blend-mode: multiply;" mask="url(#mask-34)" x="-35.2201258" y="-38.5346535" width="280.660377" height="99.0891089"></rect>
                    <g id="Group-2" mask="url(#mask-34)">
                        <g transform="translate(11.006289, 9.908911)">
                            <mask id="mask-36" fill="white">
                                <use xlink:href="#path-35"></use>
                            </mask>
                            <use id="Path-22-Copy" stroke="none" fill="#CDDECE" fill-rule="evenodd" xlink:href="#path-35"></use>
                            <rect id="Rectangle-4-Copy" stroke="none" fill="#8CDBE5" fill-rule="evenodd" style="mix-blend-mode: color-burn;" mask="url(#mask-36)" x="143.081761" y="-19.8178218" width="77.0440252" height="156.340594"></rect>
                            <rect id="Rectangle-4" stroke="none" fill="#DFECC3" fill-rule="evenodd" style="mix-blend-mode: multiply;" mask="url(#mask-36)" x="0" y="-19.8178218" width="220.125786" height="156.340594"></rect>
                            <mask id="mask-38" fill="white">
                                <use xlink:href="#path-37"></use>
                            </mask>
                            <use id="Path-22-Copy" stroke="none" fill="#CDDECE" fill-rule="evenodd" xlink:href="#path-37"></use>
                            <rect id="Rectangle-4-Copy" stroke="none" fill-opacity="0.0351000001" fill="#8CDBE5" fill-rule="evenodd" style="mix-blend-mode: multiply;" mask="url(#mask-38)" x="143.081761" y="-19.8178218" width="77.0440252" height="156.340594"></rect>
                            <rect id="Rectangle-4-Copy-2" stroke="none" fill-opacity="0.249999985" fill="url(#pattern-39)" fill-rule="evenodd" style="mix-blend-mode: color-burn;" mask="url(#mask-38)" x="0" y="-19.8178218" width="220.125786" height="188.269307"></rect>
                        </g>
            </g>
                    </g>
                </g>
                <path d="M394.226182,141.485829 L394.226182,475.752444" id="Path-23" stroke="#000000"></path>
                <polyline id="Path-24" stroke="#979797" stroke-width="0.5" points="189.44686 95.7861386 189.44686 474.493704 393.888684 474.493704"></polyline>
                <path d="M142.040279,509.126207 C160.290942,511.226403 170.075504,515.505642 171.393966,521.963923 C172.410042,521.963923 252.975219,521.963923 413.0895,521.963923 C414.882321,513.405446 425.336146,509.126207 444.450975,509.126207 C463.565804,509.126207 362.762239,509.126207 142.040279,509.126207 Z" id="Path-25" fill="#585858"></path>
                <rect id="Rectangle-8" fill="url(#linearGradient-41)" x="188.333333" y="503.152475" width="36.3207547" height="42.9386139"></rect>
                <rect id="Rectangle-9" fill="#789270" x="199.339623" y="226.80396" width="184.90566" height="11.009901"></rect>
                <rect id="Rectangle-9" fill="#344244" x="192.735849" y="227.90495" width="198.113208" height="11.009901"></rect>
                <rect id="Rectangle-8" fill="url(#linearGradient-41)" x="358.930818" y="503.152475" width="36.3207547" height="42.9386139"></rect>
                <path d="M199.77493,104.552127 L199.77493,227.287794" id="Path-27" stroke="#979797"></path>
                <path d="M384.175419,104.91769 L384.175419,228.235032" id="Path-28" stroke="#000000"></path>
                <path d="M384.123827,238.558965 L384.123827,461.82664" id="Path-29" stroke="#000000"></path>
                <polyline id="Path-30" stroke="#979797" points="199.727637 239.034197 199.727637 460.718123 384.043214 460.718123"></polyline>
                <polyline id="Path-33" stroke="#979797" stroke-width="0.8" points="509.59445 147.661696 509.59445 296.097525 575.468811 296.097525"></polyline>
                <polyline id="Path-34" stroke="#979797" points="497.941111 135.189542 588.192684 135.189542 588.192684 309.145978"></polyline>
                <rect id="Rectangle-11" fill="#4D606E" x="536.132075" y="125.512871" width="12.1069182" height="16.5148515"></rect>
                <polyline id="Path-35" stroke="#979797" points="536.510417 125.130105 548.824778 125.130105 548.824778 136.384281"></polyline>
                <rect id="Rectangle-12" fill="#6A1D00" opacity="0.119168931" x="577.283019" y="37.4336634" width="77.7169811" height="30.9707225"></rect>
                <rect id="Rectangle-12" fill="#6A1D00" opacity="0.119168931" x="497" y="37.4336634" width="77.7169811" height="30.9707225"></rect>
                <rect id="Rectangle-12" fill="#6A1D00" opacity="0.119168931" x="536" y="70.4336634" width="77.7169811" height="30.9707225"></rect>
                <rect id="Rectangle-12" fill="#6A1D00" opacity="0.119168931" x="616" y="70.4336634" width="77.7169811" height="30.9707225"></rect>
                <rect id="Rectangle-12" fill="#6A1D00" opacity="0.119168931" x="707" y="450.433663" width="77.7169811" height="30.9707225"></rect>
                <rect id="Rectangle-12" fill="#6A1D00" opacity="0.119168931" x="0" y="103.433663" width="77.7169811" height="30.9707225"></rect>
                <path d="M423.490658,489.412678 L163.489645,489.412678" id="Path-36" stroke="#F0A182" opacity="0.56714221"></path>
                <polygon id="Combined-Shape" fill="url(#linearGradient-42)" style="mix-blend-mode: color-burn;" points="201 459.592122 201 415.559655 383.485762 396.822125 383.485762 459.592122"></polygon>
        </g>
    </g>
</svg>
